<?xml version="1.0" encoding="UTF-8" standalone="no"?>
<svg width="18px" height="18px" viewBox="0 0 18 18" version="1.1" xmlns="http://www.w3.org/2000/svg" xmlns:xlink="http://www.w3.org/1999/xlink" xmlns:sketch="http://www.bohemiancoding.com/sketch/ns">
    <title>checkbox</title>
    <description>Created with Sketch (http://www.bohemiancoding.com/sketch)</description>
    <defs></defs>
    <g id="select" stroke="none" stroke-width="1" fill="none" fill-rule="evenodd" fill-opacity="0.701286765">
        <path d="M12.310791,5.62091064 C12.1496369,5.80489966 8.0145874,9.87884544 8.0145874,9.87884544 C8.0145874,9.87884544 5.98687123,7.96025883 5.80450439,7.72174071 C5.613902,7.56308222 5.25902597,7.5600251 5.08489467,7.72174071 C4.88293729,7.91540021 4.29692245,8.50500671 4.15423584,8.67034101 C4.01154922,8.8356753 3.96675299,9.19466913 4.15423584,9.38165282 C4.43648956,9.64026061 6.10688554,11.2677636 7.63965923,12.8005373 C7.89594299,13.0568211 8.07869953,13.0635125 8.34167465,12.8005373 C10.8824417,10.2597704 13.7236767,7.45452527 13.8874512,7.26922606 C14.0512257,7.08392687 14.028578,6.794935 13.8874512,6.63215877 C13.7463243,6.46938254 13.0859281,5.76309814 12.9329471,5.62091064 C12.7799661,5.47872314 12.4719452,5.43692164 12.310791,5.62091064 Z M12.310791,5.62091064" id="checkbox" fill="#000000"></path>
    </g>
</svg>